<?xml version="1.0" standalone="no"?>
<!DOCTYPE svg PUBLIC "-//W3C//DTD SVG 20010904//EN"
 "http://www.w3.org/TR/2001/REC-SVG-20010904/DTD/svg10.dtd">
<svg version="1.0" xmlns="http://www.w3.org/2000/svg"
 width="128.000000pt" height="128.000000pt" viewBox="0 0 128.000000 128.000000"
 preserveAspectRatio="xMidYMid meet">
<metadata>
Created by potrace 1.14, written by Peter Selinger 2001-2017
</metadata>
<g transform="translate(0.000000,128.000000) scale(0.100000,-0.100000)"
fill="#000000" stroke="none">
<path d="M607 1098 c-36 -35 -73 -87 -102 -146 l-26 -53 -35 22 c-68 42 -119
62 -159 63 l-39 1 -13 -55 c-6 -30 -10 -91 -8 -135 l3 -80 -53 2 c-69 2 -137
-13 -152 -34 -16 -21 16 -108 67 -184 l38 -56 -59 -43 c-70 -51 -80 -72 -47
-107 140 -151 415 -169 590 -40 l28 21 28 -21 c107 -79 264 -108 392 -73 93
25 220 109 220 146 0 18 -40 57 -92 90 l-38 24 38 58 c51 76 81 152 71 179 -9
25 -42 35 -134 39 l-70 3 1 91 c1 50 -4 110 -11 133 -12 40 -14 42 -51 41 -39
-1 -90 -21 -158 -63 l-35 -22 -35 68 c-36 69 -105 153 -124 153 -6 0 -22 -10
-35 -22z m70 -126 c74 -114 99 -284 59 -413 -21 -69 -76 -164 -96 -164 -20 0
-72 89 -96 162 -27 86 -25 229 6 308 22 57 79 155 90 155 3 0 20 -22 37 -48z
m-260 -125 c36 -25 42 -34 38 -56 -17 -84 -3 -210 35 -303 l28 -68 -27 19
c-36 26 -102 98 -128 141 -47 77 -69 177 -64 297 l1 32 38 -16 c20 -8 56 -29
79 -46z m565 -29 c0 -79 -27 -175 -65 -238 -27 -43 -92 -115 -128 -141 l-28
-20 19 44 c43 97 63 239 46 326 -4 16 2 30 17 43 38 34 121 77 131 68 4 -5 8
-41 8 -82z m-697 -247 c43 -82 83 -131 149 -184 l51 -40 -45 7 c-66 9 -179 68
-232 121 -44 43 -93 115 -100 146 -4 16 47 26 105 20 35 -3 39 -8 72 -70z
m885 43 c-16 -42 -59 -102 -102 -144 -51 -49 -165 -107 -228 -115 -45 -5 -45
-5 -20 12 57 38 146 142 178 206 30 62 34 66 70 69 20 2 54 1 74 0 34 -4 36
-6 28 -28z m-914 -269 c61 -37 138 -64 193 -68 44 -3 38 -13 -16 -26 -97 -25
-243 1 -309 54 l-27 22 39 26 c21 15 44 27 50 27 6 0 38 -16 70 -35z m887 9
c47 -31 41 -40 -46 -80 -49 -22 -78 -29 -142 -30 -44 -1 -98 4 -120 10 l-40
13 30 7 c17 4 52 13 78 19 27 6 79 28 115 49 37 20 72 37 77 38 6 0 27 -12 48
-26z"/>
</g>
</svg>
